<?xml version="1.0" encoding="UTF-8"?>
<svg width="32px" height="12px" viewBox="0 0 32 12" version="1.1" xmlns="http://www.w3.org/2000/svg" xmlns:xlink="http://www.w3.org/1999/xlink">
    <!-- Generator: Sketch 52.6 (67491) - http://www.bohemiancoding.com/sketch -->
    <title>Group</title>
    <desc>Created with Sketch.</desc>
    <g id="Symbols" stroke="none" stroke-width="1" fill="none" fill-rule="evenodd">
        <g id="per" transform="translate(-16.000000, -44.000000)">
            <g id="Group" transform="translate(16.000000, 44.000000)">
                <rect id="Rectangle" fill="#FECE2E" x="0" y="0" width="32" height="12" rx="6"></rect>
                <path d="M21,3.49677419 C21,3.65806452 20.9354839,3.81935484 20.8193548,3.93548387 L15.2709677,9.48387097 C15.1548387,9.6 14.9935484,9.66451613 14.8322581,9.66451613 C14.6709677,9.66451613 14.5096774,9.6 14.3935484,9.48387097 L11.1806452,6.27096774 C11.0645161,6.15483871 11,5.99354839 11,5.83225806 C11,5.67096774 11.0645161,5.50967742 11.1806452,5.39354839 L12.0580645,4.51612903 C12.1741935,4.4 12.3354839,4.33548387 12.4967742,4.33548387 C12.6580645,4.33548387 12.8193548,4.4 12.9354839,4.51612903 L14.8322581,6.41935484 L19.0645161,2.18064516 C19.1806452,2.06451613 19.3419355,2 19.5032258,2 C19.6645161,2 19.8258065,2.06451613 19.9419355,2.18064516 L20.8193548,3.05806452 C20.9354839,3.17419355 21,3.33548387 21,3.49677419 Z" id="" fill="#505050" fill-rule="nonzero"></path>
            </g>
        </g>
    </g>
</svg>