<?xml version="1.0" encoding="UTF-8"?>
<svg width="122px" height="43px" viewBox="0 0 122 43" version="1.1" xmlns="http://www.w3.org/2000/svg" xmlns:xlink="http://www.w3.org/1999/xlink">
    <!-- Generator: Sketch 52.6 (67491) - http://www.bohemiancoding.com/sketch -->
    <title>logo</title>
    <desc>Created with Sketch.</desc>
    <g id="Page-1" stroke="none" stroke-width="1" fill="none" fill-rule="evenodd">
        <g id="Result" transform="translate(-20.000000, -31.000000)">
            <rect fill="#FECE2E" x="0" y="0" width="414" height="896"></rect>
            <rect id="Rectangle" fill="#FFFFFF" x="0" y="0" width="414" height="168"></rect>
            <g id="logo" transform="translate(20.000000, 30.000000)">
                <text id="LUNCH-BOX" font-family="ArialRoundedMTBold, Arial Rounded MT Bold" font-size="22" font-weight="normal" line-spacing="22" letter-spacing="-2" fill="#505050">
                    <tspan x="53" y="21">LUNCH</tspan>
                    <tspan x="53" y="43">BOX</tspan>
                </text>
                <g id="lunchbox" transform="translate(0.000000, 1.000000)">
                    <path d="M37.7692308,8.33333333 L19.5144615,8.33333333 C19.1589378,8.33324371 18.8207462,8.49970673 18.5869538,8.78986667 C17.4884513,10.1530667 15.4066462,11 13.1538462,11 C9.81829744,11 7,9.16817778 7,7 C7,4.83182222 9.81829744,3 13.1538462,3 C15.4066462,3 17.4884513,3.84693333 18.5869538,5.21013333 C18.8207462,5.50029327 19.1589378,5.66675629 19.5144615,5.66666667 L37.7692308,5.66666667 C38.4486659,5.66745054 38.9992764,6.26394527 39,7 C38.9992764,7.73605473 38.4486659,8.33254946 37.7692308,8.33333333 Z" id="Path" fill="#FECE2E"></path>
                    <path d="M6,23.25 L6,24.5 L17.4489796,24.5 C17.7839553,24.5000266 18.1051945,24.6318048 18.342,24.8663333 L20.4974388,27 L24.5025612,27 L26.658,24.8663333 C26.8948055,24.6318048 27.2160447,24.5000266 27.5510204,24.5 L39,24.5 L39,23.25 C38.9992576,22.5599487 38.4343375,22.0007349 37.7372449,22 L7.2627551,22 C6.56566245,22.0007349 6.00074238,22.5599487 6,23.25 Z" id="Path" fill="#FECE2E"></path>
                    <path d="M37.0841037,40.8676923 L38,34 L8,34 L8.91589632,40.8698022 C9.00654307,41.5173055 9.52975918,41.9975338 10.1472644,42 L35.8527356,42 C36.4707863,41.9970784 36.9940824,41.51588 37.0841037,40.8676923 Z" id="Path" fill="#FECE2E"></path>
                    <path d="M42,30.75 L42,28.25 C41.9992586,27.5599487 41.435096,27.0007349 40.7389381,27 L28.5664956,27 L26.4139469,29.1336667 C26.1774589,29.3681952 25.8566505,29.4999734 25.5221239,29.5 L20.4778761,29.5 C20.1433495,29.4999734 19.8225411,29.3681952 19.5860531,29.1336667 L17.4335044,27 L5.26106195,27 C4.56490399,27.0007349 4.00074138,27.5599487 4,28.25 L4,30.75 C4.00074138,31.4400513 4.56490399,31.9992651 5.26106195,32 L40.7389381,32 C41.435096,31.9992651 41.9992586,31.4400513 42,30.75 Z" id="Path" fill="#FECE2E"></path>
                    <path d="M36.6171875,2.51953125 L18.4695078,2.51953125 C16.8177031,0.9325625 14.2333359,0 11.421875,0 C9.15698438,0 7.01067969,0.5993125 5.37835938,1.68741406 C3.58882031,2.88032813 2.60351563,4.51802344 2.60351563,6.29882813 C2.60351563,8.07929688 3.58882031,9.71732813 5.37835938,10.9102422 C7.01067969,11.9983438 9.15698438,12.5976563 11.421875,12.5976563 C14.2336719,12.5976563 16.8177031,11.6650938 18.4695078,10.078125 L36.6171875,10.078125 C38.7010078,10.078125 40.3964844,8.38264844 40.3964844,6.29882813 C40.3964844,4.21500781 38.7010078,2.51953125 36.6171875,2.51953125 Z M36.6171875,7.55859375 L17.9323438,7.55859375 C17.5684441,7.55850907 17.2222848,7.71578736 16.9829844,7.9899375 C15.8586016,9.27792188 13.72775,10.078125 11.421875,10.078125 C8.00774219,10.078125 5.12304688,8.347375 5.12304688,6.29882813 C5.12304688,4.25028125 8.00774219,2.51953125 11.421875,2.51953125 C13.72775,2.51953125 15.8586016,3.31973438 16.9829844,4.60771875 C17.2222848,4.88186889 17.5684441,5.03914718 17.9323438,5.0390625 L36.6171875,5.0390625 C37.3126298,5.03980312 37.8762125,5.60338579 37.8769531,6.29882813 C37.8762125,6.99427046 37.3126298,7.55785313 36.6171875,7.55859375 Z M40.4804688,22.9764453 C41.9468359,23.4964766 43,24.8966641 43,26.5390625 L43,29.0585938 C43,31.1377109 41.31225,32.8298281 39.2351484,32.8375547 L38.2575703,39.7531641 C37.9931875,41.6051875 36.3847188,43 34.5158984,43 L8.48410156,43 C6.61528125,43 5.00714844,41.6051875 4.74276563,39.7551797 L3.76485156,32.8375547 C1.68775,32.8298281 0,31.1377109 0,29.0585938 L0,26.5390625 C0,24.8966641 1.05316406,23.4964766 2.51953125,22.9764453 L2.51953125,21.5 C2.51953125,19.4161797 4.21500781,17.7207031 6.29882813,17.7207031 L36.7011719,17.7207031 C38.7849922,17.7207031 40.4804688,19.4161797 40.4804688,21.5 L40.4804688,22.9764453 Z M5.0390625,21.5 L5.0390625,22.7597656 L16.4609375,22.7597656 C16.7951202,22.7597924 17.1155989,22.8926001 17.3518438,23.1289609 L19.5021797,25.2792969 L23.4978203,25.2792969 L25.6481563,23.1289609 C25.8844011,22.8926001 26.2048798,22.7597924 26.5390625,22.7597656 L37.9609375,22.7597656 L37.9609375,21.5 C37.9601969,20.8045577 37.3966142,20.240975 36.7011719,20.2402344 L6.29882813,20.2402344 C5.60338579,20.240975 5.03980312,20.8045577 5.0390625,21.5 Z M35.7628984,39.39875 L36.6904219,32.8378906 L6.30957813,32.8378906 L7.23710156,39.4007656 C7.32889905,40.01934 7.85875728,40.4781127 8.48410156,40.4804688 L34.5158984,40.4804688 C35.1417951,40.4776777 35.6717344,40.0179782 35.7628984,39.39875 Z M40.4804688,29.0585938 L40.4804688,26.5390625 C40.4797281,25.8436202 39.9161455,25.2800375 39.2207031,25.2792969 L27.0607734,25.2792969 L24.9104375,27.4296328 C24.6741926,27.6659936 24.3537139,27.7988013 24.0195313,27.7988281 L18.9804688,27.7988281 C18.6462861,27.7988013 18.3258074,27.6659936 18.0895625,27.4296328 L15.9392266,25.2792969 L3.77929688,25.2792969 C3.08385454,25.2800375 2.52027187,25.8436202 2.51953125,26.5390625 L2.51953125,29.0585938 C2.52027187,29.7540361 3.08385454,30.3176188 3.77929688,30.3183594 L39.2207031,30.3183594 C39.9161455,30.3176188 40.4797281,29.7540361 40.4804688,29.0585938 Z" id="Shape" fill="#505050" fill-rule="nonzero"></path>
                </g>
            </g>
        </g>
    </g>
</svg>